<mxfile host="app.diagrams.net" modified="2020-12-30T07:47:30.334Z" agent="5.0 (Macintosh; Intel Mac OS X 10_14_5) AppleWebKit/537.36 (KHTML, like Gecko) Chrome/87.0.4280.88 Safari/537.36" etag="HYh4T-fg0m_2EYiFxmd6" version="14.0.1" type="github" pages="2">
  <diagram id="T-0TTRabOmarUsiCqBks" name="Page-1">
    <mxGraphModel dx="1426" dy="803" grid="1" gridSize="10" guides="1" tooltips="1" connect="1" arrows="1" fold="1" page="1" pageScale="1" pageWidth="827" pageHeight="1169" math="0" shadow="0">
      <root>
        <mxCell id="0" />
        <mxCell id="1" parent="0" />
        <mxCell id="knxrKgOrFJBOttm7FoQy-13" value="" style="edgeStyle=orthogonalEdgeStyle;rounded=0;orthogonalLoop=1;jettySize=auto;html=1;" parent="1" source="knxrKgOrFJBOttm7FoQy-11" target="knxrKgOrFJBOttm7FoQy-12" edge="1">
          <mxGeometry relative="1" as="geometry">
            <Array as="points">
              <mxPoint x="40" y="90" />
            </Array>
          </mxGeometry>
        </mxCell>
        <mxCell id="knxrKgOrFJBOttm7FoQy-11" value="&lt;span style=&quot;color: rgb(51 , 51 , 51) ; font-family: &amp;#34;vollkorn&amp;#34; , &amp;#34;palatino&amp;#34; , &amp;#34;times&amp;#34; ; font-size: 19px ; text-align: justify ; background-color: rgb(254 , 254 , 254)&quot;&gt;render&lt;/span&gt;" style="rounded=0;whiteSpace=wrap;html=1;" parent="1" vertex="1">
          <mxGeometry x="20" y="20" width="120" height="40" as="geometry" />
        </mxCell>
        <mxCell id="knxrKgOrFJBOttm7FoQy-15" value="" style="edgeStyle=orthogonalEdgeStyle;rounded=0;orthogonalLoop=1;jettySize=auto;html=1;" parent="1" source="knxrKgOrFJBOttm7FoQy-12" target="knxrKgOrFJBOttm7FoQy-14" edge="1">
          <mxGeometry relative="1" as="geometry">
            <Array as="points">
              <mxPoint x="90" y="170" />
              <mxPoint x="333" y="170" />
            </Array>
          </mxGeometry>
        </mxCell>
        <mxCell id="knxrKgOrFJBOttm7FoQy-12" value="&lt;span style=&quot;color: rgb(51 , 51 , 51) ; font-family: &amp;#34;vollkorn&amp;#34; , &amp;#34;palatino&amp;#34; , &amp;#34;times&amp;#34; ; font-size: 19px ; text-align: justify ; background-color: rgb(254 , 254 , 254)&quot;&gt;legacyRenderSubtreeIntoContainer&lt;/span&gt;" style="whiteSpace=wrap;html=1;rounded=0;" parent="1" vertex="1">
          <mxGeometry x="70" y="70" width="310" height="60" as="geometry" />
        </mxCell>
        <mxCell id="knxrKgOrFJBOttm7FoQy-17" value="" style="edgeStyle=orthogonalEdgeStyle;rounded=0;orthogonalLoop=1;jettySize=auto;html=1;" parent="1" source="knxrKgOrFJBOttm7FoQy-14" target="knxrKgOrFJBOttm7FoQy-16" edge="1">
          <mxGeometry relative="1" as="geometry">
            <Array as="points">
              <mxPoint x="160" y="240" />
              <mxPoint x="319" y="240" />
            </Array>
          </mxGeometry>
        </mxCell>
        <mxCell id="knxrKgOrFJBOttm7FoQy-26" value="" style="edgeStyle=orthogonalEdgeStyle;rounded=0;orthogonalLoop=1;jettySize=auto;html=1;" parent="1" source="knxrKgOrFJBOttm7FoQy-14" target="knxrKgOrFJBOttm7FoQy-25" edge="1">
          <mxGeometry relative="1" as="geometry" />
        </mxCell>
        <mxCell id="knxrKgOrFJBOttm7FoQy-14" value="&lt;span style=&quot;color: rgb(51 , 51 , 51) ; font-family: &amp;#34;vollkorn&amp;#34; , &amp;#34;palatino&amp;#34; , &amp;#34;times&amp;#34; ; font-size: 19px ; text-align: justify ; background-color: rgb(254 , 254 , 254)&quot;&gt;legacyCreateRootFromDOMContainer&lt;/span&gt;" style="whiteSpace=wrap;html=1;rounded=0;" parent="1" vertex="1">
          <mxGeometry x="130" y="140" width="335" height="60" as="geometry" />
        </mxCell>
        <mxCell id="knxrKgOrFJBOttm7FoQy-19" value="" style="edgeStyle=orthogonalEdgeStyle;rounded=0;orthogonalLoop=1;jettySize=auto;html=1;" parent="1" source="knxrKgOrFJBOttm7FoQy-16" target="knxrKgOrFJBOttm7FoQy-18" edge="1">
          <mxGeometry relative="1" as="geometry">
            <Array as="points">
              <mxPoint x="210" y="330" />
            </Array>
          </mxGeometry>
        </mxCell>
        <mxCell id="knxrKgOrFJBOttm7FoQy-16" value="&lt;span style=&quot;color: rgb(51 , 51 , 51) ; font-family: &amp;#34;vollkorn&amp;#34; , &amp;#34;palatino&amp;#34; , &amp;#34;times&amp;#34; ; font-size: 19px ; text-align: justify ; background-color: rgb(254 , 254 , 254)&quot;&gt;createLegacyRoot&lt;/span&gt;" style="whiteSpace=wrap;html=1;rounded=0;" parent="1" vertex="1">
          <mxGeometry x="190" y="220" width="162.5" height="60" as="geometry" />
        </mxCell>
        <mxCell id="knxrKgOrFJBOttm7FoQy-21" value="" style="edgeStyle=orthogonalEdgeStyle;rounded=0;orthogonalLoop=1;jettySize=auto;html=1;" parent="1" source="knxrKgOrFJBOttm7FoQy-18" target="knxrKgOrFJBOttm7FoQy-20" edge="1">
          <mxGeometry relative="1" as="geometry">
            <Array as="points">
              <mxPoint x="270" y="390" />
              <mxPoint x="352" y="390" />
            </Array>
          </mxGeometry>
        </mxCell>
        <mxCell id="knxrKgOrFJBOttm7FoQy-18" value="&lt;span style=&quot;color: rgb(51 , 51 , 51) ; font-family: &amp;#34;vollkorn&amp;#34; , &amp;#34;palatino&amp;#34; , &amp;#34;times&amp;#34; ; font-size: 19px ; text-align: justify ; background-color: rgb(254 , 254 , 254)&quot;&gt;new ReactDOMBlockingRoot&lt;/span&gt;" style="whiteSpace=wrap;html=1;rounded=0;" parent="1" vertex="1">
          <mxGeometry x="237.5" y="290" width="212.5" height="60" as="geometry" />
        </mxCell>
        <mxCell id="knxrKgOrFJBOttm7FoQy-23" value="" style="edgeStyle=orthogonalEdgeStyle;rounded=0;orthogonalLoop=1;jettySize=auto;html=1;" parent="1" source="knxrKgOrFJBOttm7FoQy-20" target="knxrKgOrFJBOttm7FoQy-22" edge="1">
          <mxGeometry relative="1" as="geometry">
            <Array as="points">
              <mxPoint x="330" y="470" />
              <mxPoint x="389" y="470" />
            </Array>
          </mxGeometry>
        </mxCell>
        <mxCell id="knxrKgOrFJBOttm7FoQy-20" value="&lt;span style=&quot;color: rgb(51, 51, 51); font-family: vollkorn, palatino, times; font-size: 19px; font-style: normal; font-weight: normal; letter-spacing: normal; text-align: justify; text-indent: 0px; text-transform: none; word-spacing: 0px; background-color: rgb(254, 254, 254); text-decoration: none; display: inline; float: none;&quot;&gt;createRootImpl&lt;/span&gt;" style="whiteSpace=wrap;html=1;rounded=0;" parent="1" vertex="1">
          <mxGeometry x="300" y="370" width="136.25" height="60" as="geometry" />
        </mxCell>
        <mxCell id="knxrKgOrFJBOttm7FoQy-22" value="&lt;span style=&quot;color: rgb(51 , 51 , 51) ; font-family: &amp;#34;vollkorn&amp;#34; , &amp;#34;palatino&amp;#34; , &amp;#34;times&amp;#34; ; font-size: 19px ; text-align: justify ; background-color: rgb(254 , 254 , 254)&quot;&gt;createFiberRoot&lt;/span&gt;" style="whiteSpace=wrap;html=1;rounded=0;" parent="1" vertex="1">
          <mxGeometry x="352.5" y="450" width="161.88" height="60" as="geometry" />
        </mxCell>
        <mxCell id="knxrKgOrFJBOttm7FoQy-28" value="" style="edgeStyle=orthogonalEdgeStyle;rounded=0;orthogonalLoop=1;jettySize=auto;html=1;" parent="1" source="knxrKgOrFJBOttm7FoQy-25" target="knxrKgOrFJBOttm7FoQy-27" edge="1">
          <mxGeometry relative="1" as="geometry">
            <Array as="points">
              <mxPoint x="550" y="320" />
            </Array>
          </mxGeometry>
        </mxCell>
        <mxCell id="knxrKgOrFJBOttm7FoQy-33" value="" style="edgeStyle=orthogonalEdgeStyle;rounded=0;orthogonalLoop=1;jettySize=auto;html=1;" parent="1" source="knxrKgOrFJBOttm7FoQy-25" target="knxrKgOrFJBOttm7FoQy-32" edge="1">
          <mxGeometry relative="1" as="geometry">
            <Array as="points">
              <mxPoint x="520" y="400" />
            </Array>
          </mxGeometry>
        </mxCell>
        <mxCell id="knxrKgOrFJBOttm7FoQy-25" value="&lt;span style=&quot;color: rgb(51, 51, 51); font-family: vollkorn, palatino, times; font-size: 19px; font-style: normal; font-weight: normal; letter-spacing: normal; text-align: justify; text-indent: 0px; text-transform: none; word-spacing: 0px; background-color: rgb(254, 254, 254); text-decoration: none; display: inline; float: none;&quot;&gt;updateContainer&lt;/span&gt;" style="whiteSpace=wrap;html=1;rounded=0;" parent="1" vertex="1">
          <mxGeometry x="490" y="220" width="162.5" height="60" as="geometry" />
        </mxCell>
        <mxCell id="knxrKgOrFJBOttm7FoQy-27" value="&lt;span style=&quot;color: rgb(51 , 51 , 51) ; font-family: &amp;#34;vollkorn&amp;#34; , &amp;#34;palatino&amp;#34; , &amp;#34;times&amp;#34; ; font-size: 19px ; text-align: justify ; background-color: rgb(254 , 254 , 254)&quot;&gt;enqueueUpdate&lt;/span&gt;" style="whiteSpace=wrap;html=1;rounded=0;" parent="1" vertex="1">
          <mxGeometry x="590" y="290" width="150" height="60" as="geometry" />
        </mxCell>
        <mxCell id="knxrKgOrFJBOttm7FoQy-36" value="" style="edgeStyle=orthogonalEdgeStyle;rounded=0;orthogonalLoop=1;jettySize=auto;html=1;" parent="1" source="knxrKgOrFJBOttm7FoQy-30" target="knxrKgOrFJBOttm7FoQy-35" edge="1">
          <mxGeometry relative="1" as="geometry" />
        </mxCell>
        <mxCell id="knxrKgOrFJBOttm7FoQy-38" style="edgeStyle=orthogonalEdgeStyle;rounded=0;orthogonalLoop=1;jettySize=auto;html=1;" parent="1" source="knxrKgOrFJBOttm7FoQy-30" target="knxrKgOrFJBOttm7FoQy-16" edge="1">
          <mxGeometry relative="1" as="geometry">
            <mxPoint x="410" y="250" as="targetPoint" />
            <Array as="points">
              <mxPoint x="480" y="40" />
              <mxPoint x="480" y="250" />
            </Array>
          </mxGeometry>
        </mxCell>
        <mxCell id="knxrKgOrFJBOttm7FoQy-30" value="&lt;span style=&quot;color: rgb(51 , 51 , 51) ; font-family: &amp;#34;vollkorn&amp;#34; , &amp;#34;palatino&amp;#34; , &amp;#34;times&amp;#34; ; font-size: 19px ; text-align: justify ; background-color: rgb(254 , 254 , 254)&quot;&gt;createRoot&lt;/span&gt;" style="rounded=0;whiteSpace=wrap;html=1;" parent="1" vertex="1">
          <mxGeometry x="600" y="20" width="120" height="40" as="geometry" />
        </mxCell>
        <mxCell id="knxrKgOrFJBOttm7FoQy-32" value="&lt;span style=&quot;color: rgb(51 , 51 , 51) ; font-family: &amp;#34;vollkorn&amp;#34; , &amp;#34;palatino&amp;#34; , &amp;#34;times&amp;#34; ; font-size: 19px ; text-align: justify ; background-color: rgb(254 , 254 , 254)&quot;&gt;scheduleUpdateOnFiber&lt;/span&gt;" style="whiteSpace=wrap;html=1;rounded=0;" parent="1" vertex="1">
          <mxGeometry x="590" y="370" width="220" height="60" as="geometry" />
        </mxCell>
        <mxCell id="knxrKgOrFJBOttm7FoQy-37" style="edgeStyle=orthogonalEdgeStyle;rounded=0;orthogonalLoop=1;jettySize=auto;html=1;exitX=0.5;exitY=1;exitDx=0;exitDy=0;entryX=0.75;entryY=0;entryDx=0;entryDy=0;" parent="1" source="knxrKgOrFJBOttm7FoQy-35" target="knxrKgOrFJBOttm7FoQy-25" edge="1">
          <mxGeometry relative="1" as="geometry">
            <Array as="points">
              <mxPoint x="925" y="170" />
              <mxPoint x="612" y="170" />
            </Array>
          </mxGeometry>
        </mxCell>
        <mxCell id="knxrKgOrFJBOttm7FoQy-35" value="&lt;span style=&quot;color: rgb(51 , 51 , 51) ; font-family: &amp;#34;vollkorn&amp;#34; , &amp;#34;palatino&amp;#34; , &amp;#34;times&amp;#34; ; font-size: 19px ; text-align: justify ; background-color: rgb(254 , 254 , 254)&quot;&gt;ReactDOMRoot.prototype.render&lt;/span&gt;" style="whiteSpace=wrap;html=1;rounded=0;" parent="1" vertex="1">
          <mxGeometry x="780" y="10" width="290" height="60" as="geometry" />
        </mxCell>
      </root>
    </mxGraphModel>
  </diagram>
  <diagram id="I2QeTn85nPj7NLiVw9hx" name="Page-2">
    <mxGraphModel dx="1426" dy="803" grid="1" gridSize="10" guides="1" tooltips="1" connect="1" arrows="1" fold="1" page="1" pageScale="1" pageWidth="827" pageHeight="1169" math="0" shadow="0">
      <root>
        <mxCell id="XqVWHYIMarAri33oOuAz-0" />
        <mxCell id="XqVWHYIMarAri33oOuAz-1" parent="XqVWHYIMarAri33oOuAz-0" />
      </root>
    </mxGraphModel>
  </diagram>
</mxfile>
